<svg xmlns="http://www.w3.org/2000/svg" viewBox="0 0 800 600" width="800" height="600"><defs>
<radialGradient id="bglata1" cx="50%" cy="38%" r="75%"><stop offset="0" stop-color="#5A1414"/><stop offset="1" stop-color="#2A0808"/></radialGradient>
<linearGradient id="bunToplata1" x1="0" y1="0" x2="0" y2="1"><stop offset="0" stop-color="#F2A54A"/><stop offset=".55" stop-color="#D9832B"/><stop offset="1" stop-color="#B8641C"/></linearGradient>
<linearGradient id="bunBotlata1" x1="0" y1="0" x2="0" y2="1"><stop offset="0" stop-color="#E39A45"/><stop offset="1" stop-color="#B9681F"/></linearGradient>
<linearGradient id="pattylata1" x1="0" y1="0" x2="0" y2="1"><stop offset="0" stop-color="#6B3A22"/><stop offset=".5" stop-color="#4E2716"/><stop offset="1" stop-color="#3A1C10"/></linearGradient>
<linearGradient id="cheeselata1" x1="0" y1="0" x2="0" y2="1"><stop offset="0" stop-color="#FFD24A"/><stop offset="1" stop-color="#F2A812"/></linearGradient>
<linearGradient id="crispylata1" x1="0" y1="0" x2="0" y2="1"><stop offset="0" stop-color="#F0B24E"/><stop offset="1" stop-color="#C77A22"/></linearGradient>
<filter id="softlata1" x="-20%" y="-20%" width="140%" height="140%"><feGaussianBlur stdDeviation="14"/></filter>
</defs>
<rect width="800" height="600" fill="url(#bglata1)"/>
<circle cx="120" cy="90" r="160" fill="#fff" opacity=".05"/><circle cx="700" cy="520" r="220" fill="#000" opacity=".06"/><ellipse cx="400" cy="500" rx="120" ry="34" fill="#000" opacity=".28" filter="url(#softlata1)"/><g>
<rect x="328.5" y="223.0" width="143.0" height="247.0" rx="18.2" fill="#C8102E"/>
<rect x="338.9" y="228.2" width="18.2" height="236.6" rx="6" fill="#fff" opacity=".22"/>
<ellipse cx="400" cy="228.2" rx="66.3" ry="13.0" fill="#C9C9C9"/><ellipse cx="400" cy="225.6" rx="55.9" ry="7.800000000000001" fill="#E8E8E8"/>
<text x="400" y="356.9" text-anchor="middle" font-family="Arial Black,Arial" font-weight="900" font-size="29" fill="#fff" transform="rotate(-8 400 346.5)">COLA</text>
</g><g><rect x="24" y="24" width="96" height="30" rx="6" fill="#000" opacity=".35"/><text x="72" y="45" text-anchor="middle" font-family="Arial" font-size="15" font-weight="700" fill="#fff">DEMO</text></g></svg>